<svg width="36" height="36" viewBox="0 0 36 36" fill="none" xmlns="http://www.w3.org/2000/svg">
<rect width="36" height="36" rx="18" fill="white"/>
<path fill-rule="evenodd" clip-rule="evenodd" d="M18 8.50467C12.7197 8.50467 8.43925 12.9797 8.43925 18.5C8.43925 20.1457 8.81911 21.6964 9.49153 23.0636C9.71088 23.5097 9.76974 24.0491 9.59817 24.5567L8.64387 27.3802C8.4999 27.8061 8.89235 28.2164 9.29977 28.0659L11.8931 27.1079C12.3981 26.9213 12.9352 26.9953 13.3714 27.2481C14.7421 28.0426 16.3194 28.4953 18 28.4953C23.2803 28.4953 27.5607 24.0203 27.5607 18.5C27.5607 12.9797 23.2803 8.50467 18 8.50467ZM7 18.5C7 12.1487 11.9249 7 18 7C24.0751 7 29 12.1487 29 18.5C29 24.8513 24.0751 30 18 30C16.0691 30 14.2523 29.4792 12.6735 28.5641C12.5647 28.501 12.455 28.4961 12.3726 28.5266L9.77929 29.4846C8.2311 30.0565 6.73978 28.4974 7.28684 26.8789L8.24115 24.0554C8.26917 23.9725 8.26613 23.8626 8.21155 23.7517C7.43691 22.1765 7 20.3905 7 18.5Z" fill="#404040"/>
<path d="M14.1963 18.5537C14.1963 19.2957 13.6209 19.8972 12.9112 19.8972C12.2015 19.8972 11.6262 19.2957 11.6262 18.5537C11.6262 17.8118 12.2015 17.2103 12.9112 17.2103C13.6209 17.2103 14.1963 17.8118 14.1963 18.5537Z" fill="#404040"/>
<path d="M19.3364 18.5537C19.3364 19.2957 18.7611 19.8972 18.0514 19.8972C17.3417 19.8972 16.7664 19.2957 16.7664 18.5537C16.7664 17.8118 17.3417 17.2103 18.0514 17.2103C18.7611 17.2103 19.3364 17.8118 19.3364 18.5537Z" fill="#404040"/>
<path d="M24.4766 18.5537C24.4766 19.2957 23.9013 19.8972 23.1916 19.8972C22.4819 19.8972 21.9065 19.2957 21.9065 18.5537C21.9065 17.8118 22.4819 17.2103 23.1916 17.2103C23.9013 17.2103 24.4766 17.8118 24.4766 18.5537Z" fill="#404040"/>
</svg>
