<svg width="37" height="36" viewBox="0 0 37 36" fill="none" xmlns="http://www.w3.org/2000/svg">
<rect y="0.00012207" width="37" height="35.9998" rx="17.9999" fill="white"/>
<path fill-rule="evenodd" clip-rule="evenodd" d="M18.7 8.3762C15.758 8.3762 13.4 10.6645 13.4 13.455C13.4 15.1334 14.2496 16.6263 15.5701 17.554C15.7971 17.7135 15.906 17.9902 15.8474 18.2583C15.7888 18.5264 15.5738 18.7347 15.3002 18.7885C13.3486 19.1719 11.7167 19.8688 10.5899 20.7324C9.46062 21.5978 8.9 22.5761 8.9 23.5452C8.9 24.7764 9.81645 26.0336 11.6168 27.0224C13.3943 27.9986 15.8972 28.624 18.7 28.624C21.5028 28.624 24.0057 27.9986 25.7832 27.0224C27.5836 26.0336 28.5 24.7764 28.5 23.5452C28.5 22.5761 27.9394 21.5978 26.8101 20.7324C25.6833 19.8688 24.0514 19.1719 22.0998 18.7885C21.8262 18.7347 21.6112 18.5264 21.5526 18.2583C21.494 17.9902 21.6029 17.7135 21.8299 17.554C23.1504 16.6263 24 15.1334 24 13.455C24 10.6645 21.642 8.3762 18.7 8.3762ZM12 13.455C12 9.87562 15.0146 7.00012 18.7 7.00012C22.3854 7.00012 25.4 9.87562 25.4 13.455C25.4 15.1091 24.7542 16.6151 23.6972 17.7547C25.2544 18.1955 26.6195 18.8414 27.671 19.6472C29.0085 20.6723 29.9 22.011 29.9 23.5452C29.9 25.499 28.4659 27.1253 26.4661 28.2236C24.4433 29.3346 21.6962 30.0001 18.7 30.0001C15.7038 30.0001 12.9567 29.3346 10.9339 28.2236C8.93406 27.1253 7.5 25.499 7.5 23.5452C7.5 22.011 8.39147 20.6723 9.72902 19.6472C10.7805 18.8414 12.1456 18.1955 13.7028 17.7547C12.6458 16.6151 12 15.1091 12 13.455Z" fill="#404040"/>
</svg>
