<svg width="36" height="36" viewBox="0 0 36 36" fill="none" xmlns="http://www.w3.org/2000/svg">
<rect width="36" height="36" rx="18" fill="white"/>
<path d="M13.8196 28H22.1804C24.4891 28 26.3607 26.214 26.3607 24.0108V19.133C26.3607 18.4248 26.6555 17.7456 27.1803 17.2448C28.3962 16.0845 28.2381 14.162 26.8475 13.1969L20.4588 8.763C18.9929 7.74567 17.0071 7.74567 15.5412 8.763L9.15251 13.1969C7.76187 14.162 7.60381 16.0845 8.81969 17.2448C9.34447 17.7456 9.6393 18.4248 9.6393 19.133V24.0108C9.6393 26.214 11.5109 28 13.8196 28Z" stroke="#28303F" stroke-width="1.5"/>
<path d="M20 22C20 23.1046 19.1046 24 18 24C16.8954 24 16 23.1046 16 22C16 20.8954 16.8954 20 18 20C19.1046 20 20 20.8954 20 22Z" stroke="#28303F" stroke-width="1.5"/>
</svg>
